Coordinates
version=1
nRows=6
nColumns=63
inDegrees=yes

Units are S.I. units (second, meters, Newtons, ...)
If the header above contains a line with 'inDegrees', this indicates whether rotational values are in degrees (yes) or radians (no).

endheader
time	pelvis_tilt	pelvis_list	pelvis_rotation	pelvis_tx	pelvis_ty	pelvis_tz	hip_flexion_r	hip_adduction_r	hip_rotation_r	knee_angle_r	knee_angle_r_beta	ankle_angle_r	subtalar_angle_r	mtp_angle_r	hip_flexion_l	hip_adduction_l	hip_rotation_l	knee_angle_l	knee_angle_l_beta	ankle_angle_l	subtalar_angle_l	mtp_angle_l	L5_S1_Flex_Ext	L5_S1_Lat_Bending	L5_S1_axial_rotation	L4_L5_Flex_Ext	L4_L5_Lat_Bending	L4_L5_axial_rotation	L3_L4_Flex_Ext	L3_L4_Lat_Bending	L3_L4_axial_rotation	L2_L3_Flex_Ext	L2_L3_Lat_Bending	L2_L3_axial_rotation	L1_L2_Flex_Ext	L1_L2_Lat_Bending	L1_L2_axial_rotation	L1_T12_Flex_Ext	L1_T12_Lat_Bending	L1_T12_axial_rotation	Abs_r3	Abs_r2	Abs_r1	Abs_t1	Abs_t2	neck_flexion	neck_bending	neck_rotation	arm_flex_r	arm_add_r	arm_rot_r	elbow_flex_r	pro_sup_r	wrist_flex_r	wrist_dev_r	arm_flex_l	arm_add_l	arm_rot_l	elbow_flex_l	pro_sup_l	wrist_flex_l	wrist_dev_l
      0.00000000	      0.77129924	     -4.88023463	     87.93928359	      0.24754144	      1.02716619	      0.04890768	     -6.37197537	     -0.58088774	     -3.13091161	      8.92140898	      0.15570796	     31.67200657	     10.75969420	      0.00000000	     -7.44034357	      1.95861022	     -7.91921487	      6.46840788	      0.11289501	     30.59506832	     -1.43728895	      0.00000000	      0.32069491	      0.07040779	      1.52475760	      0.59556253	      0.09364236	      1.62005495	      0.52686968	      0.17118950	      1.62005495	      0.36652222	      0.17118950	      1.33416290	      0.29779730	      0.14357557	      1.23886555	      0.18324507	      0.10906167	      1.14356820	      2.29069171	      0.79646702	      8.48024432	      0.00000000	      0.00000000	     27.88200325	     -3.84456514	    -11.12781707	      8.98942618	    -13.90268385	     74.59967420	     53.22904652	      8.00435998	     -0.15808806	     -4.66590532	     24.75896363	     -4.80482218	     96.51975864	     45.28780097	     88.23629371	     -3.03032679	     -1.39731093
      0.03571429	      0.78400682	     -4.69780180	     88.63714639	      0.24663772	      1.02681755	      0.04744419	     -7.04471942	     -0.52471103	     -4.97909956	      8.52793072	      0.14884047	     31.51292602	     12.57017008	      0.00000000	     -8.01222938	      2.11733463	     -4.36061693	      6.05008728	      0.10559394	     28.90386943	     -6.73263582	      0.00000000	      0.30380778	      0.07068231	      1.41301081	      0.56420143	      0.09400748	      1.50132398	      0.49912580	      0.17185698	      1.50132398	      0.34722191	      0.17185698	      1.23638446	      0.28211591	      0.14413537	      1.14807128	      0.17359577	      0.10948690	      1.05975810	      2.17006860	      0.79957246	      7.85874220	      0.00000000	      0.00000000	     27.83422394	     -4.02876989	    -11.49175021	      8.65672623	    -13.69232487	     74.91002323	     52.63512147	      7.75025981	      0.83163233	     -1.59561913	     24.75238735	     -4.85049826	     97.75938216	     45.08191746	     88.12033058	     -6.35650890	     -2.83976784
      0.07142857	      0.79386552	     -4.65493320	     88.86943431	      0.24641333	      1.02637601	      0.04642035	     -7.25255298	     -0.46371107	     -5.02087318	      8.52643221	      0.14881432	     31.49275991	     12.55837665	      0.00000000	     -8.19926345	      2.08513141	     -4.51815337	      6.08723923	      0.10624237	     28.75285379	     -6.84504707	      0.00000000	      0.31711940	      0.06891318	      1.41882529	      0.58892244	      0.09165452	      1.50750188	      0.52099547	      0.16755550	      1.50750188	      0.36243577	      0.16755550	      1.24147213	      0.29447708	      0.14052775	      1.15279555	      0.18120203	      0.10674651	      1.06411897	      2.26515218	      0.77955962	      7.89108064	      0.00000000	      0.00000000	     27.87124602	     -4.04987078	    -11.48957613	      8.26092230	    -13.64672052	     75.21750490	     52.59133817	      7.77883985	      0.84255664	     -1.42999261	     24.59391990	     -4.88690605	     97.80430795	     45.13859029	     88.11358106	     -6.40437335	     -2.87269022
      0.10714286	      0.87097911	     -4.34071229	     89.57503289	      0.24553153	      1.02658333	      0.04530722	     -8.12430890	     -0.21370137	     -5.52419227	      7.68124406	      0.13406300	     31.11658226	     12.46082896	      0.00000000	     -8.89594417	      2.10666408	     -0.96366478	      5.39121026	      0.09409437	     27.06661522	    -11.49774134	      0.00000000	      0.29922994	      0.07786947	      1.18332070	      0.55569993	      0.10356639	      1.25727825	      0.49160487	      0.18933183	      1.25727825	      0.34198990	      0.18933183	      1.03540562	      0.27786493	      0.15879142	      0.96144807	      0.17097999	      0.12061981	      0.88749053	      2.13736956	      0.88087501	      6.58127476	      0.00000000	      0.00000000	     27.85054943	     -3.62316588	    -10.31267792	      9.24995495	    -13.43195308	     77.66957309	     51.91296745	      7.79675072	      2.59516918	     -0.60811948	     24.11853887	     -5.39828512	     97.28331367	     45.54157852	     87.91172469	     -8.09830321	     -3.33275526
      0.14285714	      0.92297525	     -4.17519295	     89.64852815	      0.24544042	      1.02664464	      0.04468461	     -8.42911988	     -0.13284916	     -5.39797980	      7.47997210	      0.13055014	     31.10054517	     12.27185701	      0.00000000	     -9.19143146	      2.01881298	     -1.56071564	      5.21885493	      0.09108620	     27.18423966	    -10.61210475	      0.00000000	      0.30213001	      0.08201055	      1.15562452	      0.56108565	      0.10907404	      1.22785105	      0.49636940	      0.19940046	      1.22785105	      0.34530439	      0.19940046	      1.01117146	      0.28055793	      0.16723592	      0.93894492	      0.17263709	      0.12703435	      0.86671839	      2.15808447	      0.92771980	      6.42723690	      0.00000000	      0.00000000	     27.89507643	     -3.49739961	     -9.63893431	      9.45465747	    -13.42948796	     78.32930285	     51.90681468	      8.24524211	      2.94103617	     -1.14928708	     23.94623458	     -5.56531651	     97.08513569	     45.84922878	     87.69148661	     -8.08130160	     -3.31194545
      0.17857143	      0.97761457	     -4.01959774	     89.90441427	      0.24518608	      1.02680226	      0.04422724	     -8.79905752	      0.02217054	     -4.94383959	      7.06609384	      0.12332660	     30.92232964	     11.39903985	      0.00000000	     -9.45505061	      1.92672373	     -0.95949478	      4.95692056	      0.08651458	     27.02253948	    -10.95575733	      0.00000000	      0.31091298	      0.08988851	      0.98623309	      0.57739650	      0.11955171	      1.04787266	      0.51079894	      0.21855491	      1.04787266	      0.35534245	      0.21855491	      0.86295395	      0.28871379	      0.18330064	      0.80131439	      0.17765568	      0.13923730	      0.73967482	      2.22082033	      1.01683676	      5.48513257	      0.00000000	      0.00000000	     27.93853568	     -2.59483858	     -7.64350719	     11.11046711	    -13.22518080	     82.53434978	     51.58317319	      6.39428940	      3.82813108	     -4.47755865	     23.21523295	     -6.11532071	     94.97673701	     46.40279580	     87.44986331	     -6.08755932	     -2.30347367
